<svg width="328" height="328" viewBox="0 0 328 328" fill="none" xmlns="http://www.w3.org/2000/svg">
<g filter="url(#filter0_d_1_2)">
<rect width="320" height="320" transform="translate(4)" fill="white"/>
<g filter="url(#filter1_d_1_2)">
<path d="M71.1835 57.3602L118.458 212.189H120.213L170.687 53.025L216.516 68.9207L152.52 268.753H85.3246L14 57.3602H71.1835Z" fill="black"/>
</g>
<g filter="url(#filter2_d_1_2)">
<path d="M104.126 252.496L171.121 52L253.943 79.6746C268.954 84.6905 281.004 91.728 290.094 100.787C299.27 109.803 305.149 120.328 307.729 132.364C310.332 144.334 309.343 157.172 304.763 170.878C300.118 184.779 293.136 195.578 283.817 203.275C274.52 210.906 263.44 215.402 250.579 216.764C237.739 218.06 223.683 216.157 208.411 211.053L156.035 193.552L168.793 155.372L212.162 169.863C219.472 172.306 225.891 173.399 231.418 173.142C237.032 172.841 241.766 171.158 245.62 168.093C249.496 164.962 252.47 160.296 254.541 154.096C256.613 147.896 257.053 142.347 255.859 137.45C254.688 132.488 251.96 128.167 247.676 124.486C243.414 120.74 237.66 117.657 230.416 115.236L206.528 107.254L152.586 268.689L104.126 252.496ZM247.622 198.581L266.931 268.293L214.066 268.795L195.736 181.243L247.622 198.581Z" fill="black"/>
</g>
<g filter="url(#filter3_d_1_2)">
<path d="M129.105 184.372L126.819 183.597L139.308 147.206L158.258 90.4936L171.121 52L221.058 68.6863L253.943 79.6746C268.954 84.6905 281.004 91.728 290.094 100.787C299.27 109.803 305.149 120.328 307.729 132.364C310.332 144.334 309.343 157.172 304.763 170.878C300.118 184.779 293.136 195.578 283.817 203.275C274.52 210.906 263.44 215.402 250.579 216.764C237.739 218.06 223.683 216.157 208.411 211.053L156.035 193.552L168.793 155.372L212.162 169.863C219.472 172.306 225.89 173.399 231.418 173.142C237.032 172.841 241.766 171.158 245.62 168.093C249.496 164.962 252.47 160.296 254.541 154.096C256.613 147.896 257.053 142.347 255.859 137.45C254.688 132.488 251.96 128.167 247.676 124.486C243.414 120.74 237.66 117.657 230.416 115.236L206.528 107.254L177.565 200.564L129.105 184.372Z" fill="black"/>
</g>
<g filter="url(#filter4_d_1_2)">
<path d="M75.7252 57.3602L123 212.189H124.754L175.229 53.025L221.058 68.9207L157.062 268.753H89.8662L18.5417 57.3602H75.7252Z" fill="black"/>
</g>
<g filter="url(#filter5_d_1_2)">
<path d="M108.668 252.496L175.662 52L258.485 79.6746C273.496 84.6905 285.546 91.728 294.635 100.787C303.812 109.803 309.69 120.328 312.271 132.364C314.873 144.334 313.885 157.172 309.305 170.878C304.66 184.779 297.678 195.578 288.359 203.275C279.061 210.906 267.982 215.402 255.12 216.764C242.281 218.06 228.225 216.156 212.953 211.053L160.577 193.552L173.335 155.372L216.704 169.863C224.014 172.306 230.432 173.399 235.96 173.142C241.574 172.841 246.308 171.158 250.162 168.093C254.038 164.962 257.011 160.296 259.083 154.096C261.155 147.896 261.594 142.347 260.401 137.45C259.229 132.488 256.502 128.167 252.218 124.486C247.955 120.74 242.202 117.657 234.957 115.236L211.07 107.254L157.127 268.689L108.668 252.496ZM252.163 198.581L271.473 268.293L218.608 268.795L200.277 181.243L252.163 198.581Z" fill="black"/>
</g>
<g filter="url(#filter6_d_1_2)">
<path d="M133.647 184.372L131.36 183.597L143.85 147.206L162.8 90.4936L175.662 52L225.6 68.6863L258.485 79.6746C273.496 84.6905 285.546 91.728 294.635 100.787C303.812 109.803 309.69 120.328 312.271 132.364C314.873 144.334 313.885 157.172 309.305 170.878C304.66 184.779 297.678 195.578 288.359 203.275C279.061 210.906 267.982 215.402 255.12 216.764C242.281 218.06 228.225 216.157 212.953 211.053L160.577 193.552L173.335 155.372L216.704 169.863C224.014 172.306 230.432 173.399 235.96 173.142C241.574 172.841 246.308 171.158 250.162 168.093C254.038 164.962 257.011 160.296 259.083 154.096C261.155 147.896 261.594 142.347 260.401 137.45C259.229 132.488 256.502 128.167 252.218 124.486C247.955 120.74 242.202 117.657 234.957 115.236L211.07 107.254L182.106 200.564L133.647 184.372Z" fill="#3F279C"/>
</g>
</g>
<defs>
<filter id="filter0_d_1_2" x="0" y="0" width="328" height="328" filterUnits="userSpaceOnUse" color-interpolation-filters="sRGB">
<feFlood flood-opacity="0" result="BackgroundImageFix"/>
<feColorMatrix in="SourceAlpha" type="matrix" values="0 0 0 0 0 0 0 0 0 0 0 0 0 0 0 0 0 0 127 0" result="hardAlpha"/>
<feOffset dy="4"/>
<feGaussianBlur stdDeviation="2"/>
<feComposite in2="hardAlpha" operator="out"/>
<feColorMatrix type="matrix" values="0 0 0 0 0 0 0 0 0 0 0 0 0 0 0 0 0 0 0.25 0"/>
<feBlend mode="normal" in2="BackgroundImageFix" result="effect1_dropShadow_1_2"/>
<feBlend mode="normal" in="SourceGraphic" in2="effect1_dropShadow_1_2" result="shape"/>
</filter>
<filter id="filter1_d_1_2" x="9.99997" y="53.025" width="210.516" height="223.728" filterUnits="userSpaceOnUse" color-interpolation-filters="sRGB">
<feFlood flood-opacity="0" result="BackgroundImageFix"/>
<feColorMatrix in="SourceAlpha" type="matrix" values="0 0 0 0 0 0 0 0 0 0 0 0 0 0 0 0 0 0 127 0" result="hardAlpha"/>
<feOffset dy="4"/>
<feGaussianBlur stdDeviation="2"/>
<feComposite in2="hardAlpha" operator="out"/>
<feColorMatrix type="matrix" values="0 0 0 0 0 0 0 0 0 0 0 0 0 0 0 0 0 0 0.25 0"/>
<feBlend mode="normal" in2="BackgroundImageFix" result="effect1_dropShadow_1_2"/>
<feBlend mode="normal" in="SourceGraphic" in2="effect1_dropShadow_1_2" result="shape"/>
</filter>
<filter id="filter2_d_1_2" x="100.126" y="52" width="213.018" height="224.795" filterUnits="userSpaceOnUse" color-interpolation-filters="sRGB">
<feFlood flood-opacity="0" result="BackgroundImageFix"/>
<feColorMatrix in="SourceAlpha" type="matrix" values="0 0 0 0 0 0 0 0 0 0 0 0 0 0 0 0 0 0 127 0" result="hardAlpha"/>
<feOffset dy="4"/>
<feGaussianBlur stdDeviation="2"/>
<feComposite in2="hardAlpha" operator="out"/>
<feColorMatrix type="matrix" values="0 0 0 0 0 0 0 0 0 0 0 0 0 0 0 0 0 0 0.25 0"/>
<feBlend mode="normal" in2="BackgroundImageFix" result="effect1_dropShadow_1_2"/>
<feBlend mode="normal" in="SourceGraphic" in2="effect1_dropShadow_1_2" result="shape"/>
</filter>
<filter id="filter3_d_1_2" x="122.819" y="52" width="190.325" height="173.158" filterUnits="userSpaceOnUse" color-interpolation-filters="sRGB">
<feFlood flood-opacity="0" result="BackgroundImageFix"/>
<feColorMatrix in="SourceAlpha" type="matrix" values="0 0 0 0 0 0 0 0 0 0 0 0 0 0 0 0 0 0 127 0" result="hardAlpha"/>
<feOffset dy="4"/>
<feGaussianBlur stdDeviation="2"/>
<feComposite in2="hardAlpha" operator="out"/>
<feColorMatrix type="matrix" values="0 0 0 0 0 0 0 0 0 0 0 0 0 0 0 0 0 0 0.25 0"/>
<feBlend mode="normal" in2="BackgroundImageFix" result="effect1_dropShadow_1_2"/>
<feBlend mode="normal" in="SourceGraphic" in2="effect1_dropShadow_1_2" result="shape"/>
</filter>
<filter id="filter4_d_1_2" x="14.5417" y="53.025" width="210.516" height="223.728" filterUnits="userSpaceOnUse" color-interpolation-filters="sRGB">
<feFlood flood-opacity="0" result="BackgroundImageFix"/>
<feColorMatrix in="SourceAlpha" type="matrix" values="0 0 0 0 0 0 0 0 0 0 0 0 0 0 0 0 0 0 127 0" result="hardAlpha"/>
<feOffset dy="4"/>
<feGaussianBlur stdDeviation="2"/>
<feComposite in2="hardAlpha" operator="out"/>
<feColorMatrix type="matrix" values="0 0 0 0 0 0 0 0 0 0 0 0 0 0 0 0 0 0 0.25 0"/>
<feBlend mode="normal" in2="BackgroundImageFix" result="effect1_dropShadow_1_2"/>
<feBlend mode="normal" in="SourceGraphic" in2="effect1_dropShadow_1_2" result="shape"/>
</filter>
<filter id="filter5_d_1_2" x="104.668" y="52" width="213.018" height="224.795" filterUnits="userSpaceOnUse" color-interpolation-filters="sRGB">
<feFlood flood-opacity="0" result="BackgroundImageFix"/>
<feColorMatrix in="SourceAlpha" type="matrix" values="0 0 0 0 0 0 0 0 0 0 0 0 0 0 0 0 0 0 127 0" result="hardAlpha"/>
<feOffset dy="4"/>
<feGaussianBlur stdDeviation="2"/>
<feComposite in2="hardAlpha" operator="out"/>
<feColorMatrix type="matrix" values="0 0 0 0 0 0 0 0 0 0 0 0 0 0 0 0 0 0 0.25 0"/>
<feBlend mode="normal" in2="BackgroundImageFix" result="effect1_dropShadow_1_2"/>
<feBlend mode="normal" in="SourceGraphic" in2="effect1_dropShadow_1_2" result="shape"/>
</filter>
<filter id="filter6_d_1_2" x="127.36" y="52" width="190.325" height="173.158" filterUnits="userSpaceOnUse" color-interpolation-filters="sRGB">
<feFlood flood-opacity="0" result="BackgroundImageFix"/>
<feColorMatrix in="SourceAlpha" type="matrix" values="0 0 0 0 0 0 0 0 0 0 0 0 0 0 0 0 0 0 127 0" result="hardAlpha"/>
<feOffset dy="4"/>
<feGaussianBlur stdDeviation="2"/>
<feComposite in2="hardAlpha" operator="out"/>
<feColorMatrix type="matrix" values="0 0 0 0 0 0 0 0 0 0 0 0 0 0 0 0 0 0 0.25 0"/>
<feBlend mode="normal" in2="BackgroundImageFix" result="effect1_dropShadow_1_2"/>
<feBlend mode="normal" in="SourceGraphic" in2="effect1_dropShadow_1_2" result="shape"/>
</filter>
</defs>
</svg>
